<mxfile host="www.draw.io" modified="2023-04-02T20:12:58.532Z" agent="Mozilla/5.0 (Windows NT 10.0; Win64; x64; rv:109.0) Gecko/20100101 Firefox/111.0" etag="B1ywGd-CSmhCa4i2vSNv" version="21.1.2" type="device">
  <diagram name="Page-1" id="90a13364-a465-7bf4-72fc-28e22215d7a0">
    <mxGraphModel dx="1909" dy="1189" grid="1" gridSize="10" guides="1" tooltips="1" connect="1" arrows="1" fold="1" page="1" pageScale="1.5" pageWidth="1169" pageHeight="826" background="#ffffff" math="0" shadow="0">
      <root>
        <mxCell id="0" style=";html=1;" />
        <mxCell id="1" style=";html=1;" parent="0" />
        <mxCell id="JYWfzIlgHDYgauxIaSez-1" value="Fornecedor" style="shape=table;startSize=40;container=1;collapsible=0;childLayout=tableLayout;fixedRows=1;rowLines=0;fontStyle=0;strokeColor=default;fontSize=16;" parent="1" vertex="1">
          <mxGeometry x="120" y="70" width="364" height="70" as="geometry" />
        </mxCell>
        <mxCell id="JYWfzIlgHDYgauxIaSez-2" value="" style="shape=tableRow;horizontal=0;startSize=0;swimlaneHead=0;swimlaneBody=0;top=0;left=0;bottom=0;right=0;collapsible=0;dropTarget=0;fillColor=none;points=[[0,0.5],[1,0.5]];portConstraint=eastwest;strokeColor=inherit;fontSize=16;" parent="JYWfzIlgHDYgauxIaSez-1" vertex="1">
          <mxGeometry y="40" width="364" height="30" as="geometry" />
        </mxCell>
        <mxCell id="pu5xrx0_DN7eYfLpeFKv-1" value="&lt;u&gt;nif&lt;/u&gt;" style="shape=partialRectangle;html=1;whiteSpace=wrap;connectable=0;fillColor=none;top=0;left=0;bottom=0;right=0;overflow=hidden;pointerEvents=1;strokeColor=inherit;fontSize=16;align=center;" parent="JYWfzIlgHDYgauxIaSez-2" vertex="1">
          <mxGeometry width="80" height="30" as="geometry">
            <mxRectangle width="80" height="30" as="alternateBounds" />
          </mxGeometry>
        </mxCell>
        <mxCell id="JYWfzIlgHDYgauxIaSez-3" value="email" style="shape=partialRectangle;html=1;whiteSpace=wrap;connectable=0;fillColor=none;top=0;left=0;bottom=0;right=0;overflow=hidden;pointerEvents=1;strokeColor=inherit;fontSize=16;align=center;" parent="JYWfzIlgHDYgauxIaSez-2" vertex="1">
          <mxGeometry x="80" width="100" height="30" as="geometry">
            <mxRectangle width="100" height="30" as="alternateBounds" />
          </mxGeometry>
        </mxCell>
        <mxCell id="JYWfzIlgHDYgauxIaSez-4" value="morada" style="shape=partialRectangle;html=1;whiteSpace=wrap;connectable=0;fillColor=none;top=0;left=0;bottom=0;right=0;align=center;spacingLeft=6;overflow=hidden;strokeColor=inherit;fontSize=16;" parent="JYWfzIlgHDYgauxIaSez-2" vertex="1">
          <mxGeometry x="180" width="110" height="30" as="geometry">
            <mxRectangle width="110" height="30" as="alternateBounds" />
          </mxGeometry>
        </mxCell>
        <mxCell id="JYWfzIlgHDYgauxIaSez-5" value="&lt;div align=&quot;center&quot;&gt;nome&lt;/div&gt;" style="shape=partialRectangle;html=1;whiteSpace=wrap;connectable=0;fillColor=none;top=0;left=0;bottom=0;right=0;align=center;spacingLeft=6;overflow=hidden;strokeColor=inherit;fontSize=16;" parent="JYWfzIlgHDYgauxIaSez-2" vertex="1">
          <mxGeometry x="290" width="74" height="30" as="geometry">
            <mxRectangle width="74" height="30" as="alternateBounds" />
          </mxGeometry>
        </mxCell>
        <mxCell id="pu5xrx0_DN7eYfLpeFKv-2" value="Revendedor" style="shape=table;startSize=40;container=1;collapsible=0;childLayout=tableLayout;fixedRows=1;rowLines=0;fontStyle=0;strokeColor=default;fontSize=16;" parent="1" vertex="1">
          <mxGeometry x="690" y="760" width="250" height="70" as="geometry" />
        </mxCell>
        <mxCell id="pu5xrx0_DN7eYfLpeFKv-3" value="" style="shape=tableRow;horizontal=0;startSize=0;swimlaneHead=0;swimlaneBody=0;top=0;left=0;bottom=0;right=0;collapsible=0;dropTarget=0;fillColor=none;points=[[0,0.5],[1,0.5]];portConstraint=eastwest;strokeColor=inherit;fontSize=16;" parent="pu5xrx0_DN7eYfLpeFKv-2" vertex="1">
          <mxGeometry y="40" width="250" height="30" as="geometry" />
        </mxCell>
        <mxCell id="pu5xrx0_DN7eYfLpeFKv-4" value="&lt;u&gt;nif&lt;/u&gt;" style="shape=partialRectangle;html=1;whiteSpace=wrap;connectable=0;fillColor=none;top=0;left=0;bottom=0;right=0;overflow=hidden;pointerEvents=1;strokeColor=inherit;fontSize=16;align=center;" parent="pu5xrx0_DN7eYfLpeFKv-3" vertex="1">
          <mxGeometry width="43" height="30" as="geometry">
            <mxRectangle width="43" height="30" as="alternateBounds" />
          </mxGeometry>
        </mxCell>
        <mxCell id="pu5xrx0_DN7eYfLpeFKv-5" value="email" style="shape=partialRectangle;html=1;whiteSpace=wrap;connectable=0;fillColor=none;top=0;left=0;bottom=0;right=0;overflow=hidden;pointerEvents=1;strokeColor=inherit;fontSize=16;align=center;" parent="pu5xrx0_DN7eYfLpeFKv-3" vertex="1">
          <mxGeometry x="43" width="67" height="30" as="geometry">
            <mxRectangle width="67" height="30" as="alternateBounds" />
          </mxGeometry>
        </mxCell>
        <mxCell id="pu5xrx0_DN7eYfLpeFKv-6" value="morada" style="shape=partialRectangle;html=1;whiteSpace=wrap;connectable=0;fillColor=none;top=0;left=0;bottom=0;right=0;align=center;spacingLeft=6;overflow=hidden;strokeColor=inherit;fontSize=16;" parent="pu5xrx0_DN7eYfLpeFKv-3" vertex="1">
          <mxGeometry x="110" width="80" height="30" as="geometry">
            <mxRectangle width="80" height="30" as="alternateBounds" />
          </mxGeometry>
        </mxCell>
        <mxCell id="pu5xrx0_DN7eYfLpeFKv-7" value="nome" style="shape=partialRectangle;html=1;whiteSpace=wrap;connectable=0;fillColor=none;top=0;left=0;bottom=0;right=0;align=center;spacingLeft=6;overflow=hidden;strokeColor=inherit;fontSize=16;" parent="pu5xrx0_DN7eYfLpeFKv-3" vertex="1">
          <mxGeometry x="190" width="60" height="30" as="geometry">
            <mxRectangle width="60" height="30" as="alternateBounds" />
          </mxGeometry>
        </mxCell>
        <mxCell id="pu5xrx0_DN7eYfLpeFKv-8" value="Encomenda" style="shape=table;startSize=40;container=1;collapsible=0;childLayout=tableLayout;fixedRows=1;rowLines=0;fontStyle=0;strokeColor=default;fontSize=16;" parent="1" vertex="1">
          <mxGeometry x="1090" y="730" width="300" height="70" as="geometry" />
        </mxCell>
        <mxCell id="pu5xrx0_DN7eYfLpeFKv-9" value="" style="shape=tableRow;horizontal=0;startSize=0;swimlaneHead=0;swimlaneBody=0;top=0;left=0;bottom=0;right=0;collapsible=0;dropTarget=0;fillColor=none;points=[[0,0.5],[1,0.5]];portConstraint=eastwest;strokeColor=inherit;fontSize=16;" parent="pu5xrx0_DN7eYfLpeFKv-8" vertex="1">
          <mxGeometry y="40" width="300" height="30" as="geometry" />
        </mxCell>
        <mxCell id="pu5xrx0_DN7eYfLpeFKv-10" value="&lt;u&gt;num_encomenda&lt;/u&gt;" style="shape=partialRectangle;html=1;whiteSpace=wrap;connectable=0;fillColor=none;top=0;left=0;bottom=0;right=0;overflow=hidden;pointerEvents=1;strokeColor=inherit;fontSize=16;align=center;" parent="pu5xrx0_DN7eYfLpeFKv-9" vertex="1">
          <mxGeometry width="130" height="30" as="geometry">
            <mxRectangle width="130" height="30" as="alternateBounds" />
          </mxGeometry>
        </mxCell>
        <mxCell id="pu5xrx0_DN7eYfLpeFKv-11" value="data" style="shape=partialRectangle;html=1;whiteSpace=wrap;connectable=0;fillColor=none;top=0;left=0;bottom=0;right=0;overflow=hidden;pointerEvents=1;strokeColor=inherit;fontSize=16;align=center;" parent="pu5xrx0_DN7eYfLpeFKv-9" vertex="1">
          <mxGeometry x="130" width="48" height="30" as="geometry">
            <mxRectangle width="48" height="30" as="alternateBounds" />
          </mxGeometry>
        </mxCell>
        <mxCell id="pu5xrx0_DN7eYfLpeFKv-69" value="nif_revendedor" style="shape=partialRectangle;html=1;whiteSpace=wrap;connectable=0;fillColor=none;top=0;left=0;bottom=0;right=0;overflow=hidden;pointerEvents=1;strokeColor=inherit;fontSize=16;align=center;" parent="pu5xrx0_DN7eYfLpeFKv-9" vertex="1">
          <mxGeometry x="178" width="122" height="30" as="geometry">
            <mxRectangle width="122" height="30" as="alternateBounds" />
          </mxGeometry>
        </mxCell>
        <mxCell id="pu5xrx0_DN7eYfLpeFKv-21" value="Secção" style="shape=table;startSize=40;container=1;collapsible=0;childLayout=tableLayout;fixedRows=1;rowLines=0;fontStyle=0;strokeColor=default;fontSize=16;" parent="1" vertex="1">
          <mxGeometry x="910" y="70" width="280" height="70" as="geometry" />
        </mxCell>
        <mxCell id="pu5xrx0_DN7eYfLpeFKv-22" value="" style="shape=tableRow;horizontal=0;startSize=0;swimlaneHead=0;swimlaneBody=0;top=0;left=0;bottom=0;right=0;collapsible=0;dropTarget=0;fillColor=none;points=[[0,0.5],[1,0.5]];portConstraint=eastwest;strokeColor=inherit;fontSize=16;" parent="pu5xrx0_DN7eYfLpeFKv-21" vertex="1">
          <mxGeometry y="40" width="280" height="30" as="geometry" />
        </mxCell>
        <mxCell id="pu5xrx0_DN7eYfLpeFKv-23" value="designação" style="shape=partialRectangle;html=1;whiteSpace=wrap;connectable=0;fillColor=none;top=0;left=0;bottom=0;right=0;overflow=hidden;pointerEvents=1;strokeColor=inherit;fontSize=16;align=center;" parent="pu5xrx0_DN7eYfLpeFKv-22" vertex="1">
          <mxGeometry width="140" height="30" as="geometry">
            <mxRectangle width="140" height="30" as="alternateBounds" />
          </mxGeometry>
        </mxCell>
        <mxCell id="pu5xrx0_DN7eYfLpeFKv-24" value="&lt;u&gt;código&lt;/u&gt;" style="shape=partialRectangle;html=1;whiteSpace=wrap;connectable=0;fillColor=none;top=0;left=0;bottom=0;right=0;overflow=hidden;pointerEvents=1;strokeColor=inherit;fontSize=16;align=center;" parent="pu5xrx0_DN7eYfLpeFKv-22" vertex="1">
          <mxGeometry x="140" width="140" height="30" as="geometry">
            <mxRectangle width="140" height="30" as="alternateBounds" />
          </mxGeometry>
        </mxCell>
        <mxCell id="pu5xrx0_DN7eYfLpeFKv-32" value="Funcionário" style="shape=table;startSize=40;container=1;collapsible=0;childLayout=tableLayout;fixedRows=1;rowLines=0;fontStyle=0;strokeColor=default;fontSize=16;" parent="1" vertex="1">
          <mxGeometry x="809" y="320" width="550" height="70" as="geometry" />
        </mxCell>
        <mxCell id="pu5xrx0_DN7eYfLpeFKv-33" value="" style="shape=tableRow;horizontal=0;startSize=0;swimlaneHead=0;swimlaneBody=0;top=0;left=0;bottom=0;right=0;collapsible=0;dropTarget=0;fillColor=none;points=[[0,0.5],[1,0.5]];portConstraint=eastwest;strokeColor=inherit;fontSize=16;" parent="pu5xrx0_DN7eYfLpeFKv-32" vertex="1">
          <mxGeometry y="40" width="550" height="30" as="geometry" />
        </mxCell>
        <mxCell id="pu5xrx0_DN7eYfLpeFKv-34" value="nif" style="shape=partialRectangle;html=1;whiteSpace=wrap;connectable=0;fillColor=none;top=0;left=0;bottom=0;right=0;overflow=hidden;pointerEvents=1;strokeColor=inherit;fontSize=16;align=center;" parent="pu5xrx0_DN7eYfLpeFKv-33" vertex="1">
          <mxGeometry width="80" height="30" as="geometry">
            <mxRectangle width="80" height="30" as="alternateBounds" />
          </mxGeometry>
        </mxCell>
        <mxCell id="pu5xrx0_DN7eYfLpeFKv-35" value="salário" style="shape=partialRectangle;html=1;whiteSpace=wrap;connectable=0;fillColor=none;top=0;left=0;bottom=0;right=0;overflow=hidden;pointerEvents=1;strokeColor=inherit;fontSize=16;align=center;" parent="pu5xrx0_DN7eYfLpeFKv-33" vertex="1">
          <mxGeometry x="80" width="100" height="30" as="geometry">
            <mxRectangle width="100" height="30" as="alternateBounds" />
          </mxGeometry>
        </mxCell>
        <mxCell id="pu5xrx0_DN7eYfLpeFKv-36" value="morada" style="shape=partialRectangle;html=1;whiteSpace=wrap;connectable=0;fillColor=none;top=0;left=0;bottom=0;right=0;overflow=hidden;pointerEvents=1;strokeColor=inherit;fontSize=16;align=center;" parent="pu5xrx0_DN7eYfLpeFKv-33" vertex="1">
          <mxGeometry x="180" width="110" height="30" as="geometry">
            <mxRectangle width="110" height="30" as="alternateBounds" />
          </mxGeometry>
        </mxCell>
        <mxCell id="pu5xrx0_DN7eYfLpeFKv-37" value="num_CC" style="shape=partialRectangle;html=1;whiteSpace=wrap;connectable=0;fillColor=none;top=0;left=0;bottom=0;right=0;align=center;spacingLeft=6;overflow=hidden;strokeColor=inherit;fontSize=16;" parent="pu5xrx0_DN7eYfLpeFKv-33" vertex="1">
          <mxGeometry x="290" width="100" height="30" as="geometry">
            <mxRectangle width="100" height="30" as="alternateBounds" />
          </mxGeometry>
        </mxCell>
        <mxCell id="pu5xrx0_DN7eYfLpeFKv-38" value="&lt;div align=&quot;center&quot;&gt;nome&lt;/div&gt;" style="shape=partialRectangle;html=1;whiteSpace=wrap;connectable=0;fillColor=none;top=0;left=0;bottom=0;right=0;align=center;spacingLeft=6;overflow=hidden;strokeColor=inherit;fontSize=16;" parent="pu5xrx0_DN7eYfLpeFKv-33" vertex="1">
          <mxGeometry x="390" width="70" height="30" as="geometry">
            <mxRectangle width="70" height="30" as="alternateBounds" />
          </mxGeometry>
        </mxCell>
        <mxCell id="pu5xrx0_DN7eYfLpeFKv-39" value="&lt;div align=&quot;center&quot;&gt;&lt;u&gt;ID&lt;/u&gt;&lt;/div&gt;" style="shape=partialRectangle;html=1;whiteSpace=wrap;connectable=0;fillColor=none;top=0;left=0;bottom=0;right=0;align=center;spacingLeft=6;overflow=hidden;strokeColor=inherit;fontSize=16;" parent="pu5xrx0_DN7eYfLpeFKv-33" vertex="1">
          <mxGeometry x="460" width="90" height="30" as="geometry">
            <mxRectangle width="90" height="30" as="alternateBounds" />
          </mxGeometry>
        </mxCell>
        <mxCell id="pu5xrx0_DN7eYfLpeFKv-40" value="Matéria Prima" style="shape=table;startSize=40;container=1;collapsible=0;childLayout=tableLayout;fixedRows=1;rowLines=0;fontStyle=0;strokeColor=default;fontSize=16;" parent="1" vertex="1">
          <mxGeometry x="330" y="330" width="290" height="70" as="geometry" />
        </mxCell>
        <mxCell id="pu5xrx0_DN7eYfLpeFKv-41" value="" style="shape=tableRow;horizontal=0;startSize=0;swimlaneHead=0;swimlaneBody=0;top=0;left=0;bottom=0;right=0;collapsible=0;dropTarget=0;fillColor=none;points=[[0,0.5],[1,0.5]];portConstraint=eastwest;strokeColor=inherit;fontSize=16;" parent="pu5xrx0_DN7eYfLpeFKv-40" vertex="1">
          <mxGeometry y="40" width="290" height="30" as="geometry" />
        </mxCell>
        <mxCell id="pu5xrx0_DN7eYfLpeFKv-42" value="qualidade" style="shape=partialRectangle;html=1;whiteSpace=wrap;connectable=0;fillColor=none;top=0;left=0;bottom=0;right=0;overflow=hidden;pointerEvents=1;strokeColor=inherit;fontSize=16;align=center;" parent="pu5xrx0_DN7eYfLpeFKv-41" vertex="1">
          <mxGeometry width="90" height="30" as="geometry">
            <mxRectangle width="90" height="30" as="alternateBounds" />
          </mxGeometry>
        </mxCell>
        <mxCell id="pu5xrx0_DN7eYfLpeFKv-43" value="quant_armazém" style="shape=partialRectangle;html=1;whiteSpace=wrap;connectable=0;fillColor=none;top=0;left=0;bottom=0;right=0;overflow=hidden;pointerEvents=1;strokeColor=inherit;fontSize=16;align=center;" parent="pu5xrx0_DN7eYfLpeFKv-41" vertex="1">
          <mxGeometry x="90" width="130" height="30" as="geometry">
            <mxRectangle width="130" height="30" as="alternateBounds" />
          </mxGeometry>
        </mxCell>
        <mxCell id="pu5xrx0_DN7eYfLpeFKv-44" value="&lt;u&gt;código&lt;/u&gt;" style="shape=partialRectangle;html=1;whiteSpace=wrap;connectable=0;fillColor=none;top=0;left=0;bottom=0;right=0;align=center;spacingLeft=6;overflow=hidden;strokeColor=inherit;fontSize=16;" parent="pu5xrx0_DN7eYfLpeFKv-41" vertex="1">
          <mxGeometry x="220" width="70" height="30" as="geometry">
            <mxRectangle width="70" height="30" as="alternateBounds" />
          </mxGeometry>
        </mxCell>
        <mxCell id="pu5xrx0_DN7eYfLpeFKv-54" value="Processa" style="shape=table;startSize=40;container=1;collapsible=0;childLayout=tableLayout;fixedRows=1;rowLines=0;fontStyle=0;strokeColor=default;fontSize=16;" parent="1" vertex="1">
          <mxGeometry x="730" y="470" width="300" height="70" as="geometry" />
        </mxCell>
        <mxCell id="pu5xrx0_DN7eYfLpeFKv-55" value="" style="shape=tableRow;horizontal=0;startSize=0;swimlaneHead=0;swimlaneBody=0;top=0;left=0;bottom=0;right=0;collapsible=0;dropTarget=0;fillColor=none;points=[[0,0.5],[1,0.5]];portConstraint=eastwest;strokeColor=inherit;fontSize=16;" parent="pu5xrx0_DN7eYfLpeFKv-54" vertex="1">
          <mxGeometry y="40" width="300" height="30" as="geometry" />
        </mxCell>
        <mxCell id="pu5xrx0_DN7eYfLpeFKv-56" value="&lt;u&gt;cod_mat_pri&lt;/u&gt;" style="shape=partialRectangle;html=1;whiteSpace=wrap;connectable=0;fillColor=none;top=0;left=0;bottom=0;right=0;overflow=hidden;pointerEvents=1;strokeColor=inherit;fontSize=16;align=center;" parent="pu5xrx0_DN7eYfLpeFKv-55" vertex="1">
          <mxGeometry width="100" height="30" as="geometry">
            <mxRectangle width="100" height="30" as="alternateBounds" />
          </mxGeometry>
        </mxCell>
        <mxCell id="pu5xrx0_DN7eYfLpeFKv-57" value="estado" style="shape=partialRectangle;html=1;whiteSpace=wrap;connectable=0;fillColor=none;top=0;left=0;bottom=0;right=0;overflow=hidden;pointerEvents=1;strokeColor=inherit;fontSize=16;align=center;" parent="pu5xrx0_DN7eYfLpeFKv-55" vertex="1">
          <mxGeometry x="100" width="100" height="30" as="geometry">
            <mxRectangle width="100" height="30" as="alternateBounds" />
          </mxGeometry>
        </mxCell>
        <mxCell id="pu5xrx0_DN7eYfLpeFKv-58" value="&lt;u&gt;num_func&lt;/u&gt;" style="shape=partialRectangle;html=1;whiteSpace=wrap;connectable=0;fillColor=none;top=0;left=0;bottom=0;right=0;align=center;spacingLeft=6;overflow=hidden;strokeColor=inherit;fontSize=16;" parent="pu5xrx0_DN7eYfLpeFKv-55" vertex="1">
          <mxGeometry x="200" width="100" height="30" as="geometry">
            <mxRectangle width="100" height="30" as="alternateBounds" />
          </mxGeometry>
        </mxCell>
        <mxCell id="pu5xrx0_DN7eYfLpeFKv-59" value="Gerente" style="shape=table;startSize=40;container=1;collapsible=0;childLayout=tableLayout;fixedRows=1;rowLines=0;fontStyle=0;strokeColor=default;fontSize=16;" parent="1" vertex="1">
          <mxGeometry x="760" y="200" width="280" height="70" as="geometry" />
        </mxCell>
        <mxCell id="pu5xrx0_DN7eYfLpeFKv-60" value="" style="shape=tableRow;horizontal=0;startSize=0;swimlaneHead=0;swimlaneBody=0;top=0;left=0;bottom=0;right=0;collapsible=0;dropTarget=0;fillColor=none;points=[[0,0.5],[1,0.5]];portConstraint=eastwest;strokeColor=inherit;fontSize=16;" parent="pu5xrx0_DN7eYfLpeFKv-59" vertex="1">
          <mxGeometry y="40" width="280" height="30" as="geometry" />
        </mxCell>
        <mxCell id="pu5xrx0_DN7eYfLpeFKv-61" value="&lt;u&gt;ID_func&lt;/u&gt;" style="shape=partialRectangle;html=1;whiteSpace=wrap;connectable=0;fillColor=none;top=0;left=0;bottom=0;right=0;overflow=hidden;pointerEvents=1;strokeColor=inherit;fontSize=16;align=center;" parent="pu5xrx0_DN7eYfLpeFKv-60" vertex="1">
          <mxGeometry width="140" height="30" as="geometry">
            <mxRectangle width="140" height="30" as="alternateBounds" />
          </mxGeometry>
        </mxCell>
        <mxCell id="pu5xrx0_DN7eYfLpeFKv-62" value="cod_seccao" style="shape=partialRectangle;html=1;whiteSpace=wrap;connectable=0;fillColor=none;top=0;left=0;bottom=0;right=0;overflow=hidden;pointerEvents=1;strokeColor=inherit;fontSize=16;align=center;" parent="pu5xrx0_DN7eYfLpeFKv-60" vertex="1">
          <mxGeometry x="140" width="140" height="30" as="geometry">
            <mxRectangle width="140" height="30" as="alternateBounds" />
          </mxGeometry>
        </mxCell>
        <mxCell id="w_JXF_L3tK3iDoOa67MP-25" style="edgeStyle=orthogonalEdgeStyle;rounded=0;orthogonalLoop=1;jettySize=auto;html=1;exitX=1;exitY=0.75;exitDx=0;exitDy=0;" edge="1" parent="1" source="pu5xrx0_DN7eYfLpeFKv-63">
          <mxGeometry relative="1" as="geometry">
            <mxPoint x="1150" y="140" as="targetPoint" />
            <Array as="points">
              <mxPoint x="1390" y="250" />
              <mxPoint x="1420" y="250" />
              <mxPoint x="1420" y="160" />
              <mxPoint x="1150" y="160" />
            </Array>
          </mxGeometry>
        </mxCell>
        <mxCell id="pu5xrx0_DN7eYfLpeFKv-63" value="Operário" style="shape=table;startSize=40;container=1;collapsible=0;childLayout=tableLayout;fixedRows=1;rowLines=0;fontStyle=0;strokeColor=default;fontSize=16;" parent="1" vertex="1">
          <mxGeometry x="1110" y="200" width="280" height="70" as="geometry" />
        </mxCell>
        <mxCell id="pu5xrx0_DN7eYfLpeFKv-64" value="" style="shape=tableRow;horizontal=0;startSize=0;swimlaneHead=0;swimlaneBody=0;top=0;left=0;bottom=0;right=0;collapsible=0;dropTarget=0;fillColor=none;points=[[0,0.5],[1,0.5]];portConstraint=eastwest;strokeColor=inherit;fontSize=16;" parent="pu5xrx0_DN7eYfLpeFKv-63" vertex="1">
          <mxGeometry y="40" width="280" height="30" as="geometry" />
        </mxCell>
        <mxCell id="pu5xrx0_DN7eYfLpeFKv-65" value="&lt;u&gt;ID_func&lt;/u&gt;" style="shape=partialRectangle;html=1;whiteSpace=wrap;connectable=0;fillColor=none;top=0;left=0;bottom=0;right=0;overflow=hidden;pointerEvents=1;strokeColor=inherit;fontSize=16;align=center;" parent="pu5xrx0_DN7eYfLpeFKv-64" vertex="1">
          <mxGeometry width="140" height="30" as="geometry">
            <mxRectangle width="140" height="30" as="alternateBounds" />
          </mxGeometry>
        </mxCell>
        <mxCell id="pu5xrx0_DN7eYfLpeFKv-66" value="cod_seccao" style="shape=partialRectangle;html=1;whiteSpace=wrap;connectable=0;fillColor=none;top=0;left=0;bottom=0;right=0;overflow=hidden;pointerEvents=1;strokeColor=inherit;fontSize=16;align=center;" parent="pu5xrx0_DN7eYfLpeFKv-64" vertex="1">
          <mxGeometry x="140" width="140" height="30" as="geometry">
            <mxRectangle width="140" height="30" as="alternateBounds" />
          </mxGeometry>
        </mxCell>
        <mxCell id="pu5xrx0_DN7eYfLpeFKv-72" value="Fornece" style="shape=table;startSize=40;container=1;collapsible=0;childLayout=tableLayout;fixedRows=1;rowLines=0;fontStyle=0;strokeColor=default;fontSize=16;" parent="1" vertex="1">
          <mxGeometry x="200" y="200" width="349" height="70" as="geometry" />
        </mxCell>
        <mxCell id="pu5xrx0_DN7eYfLpeFKv-73" value="" style="shape=tableRow;horizontal=0;startSize=0;swimlaneHead=0;swimlaneBody=0;top=0;left=0;bottom=0;right=0;collapsible=0;dropTarget=0;fillColor=none;points=[[0,0.5],[1,0.5]];portConstraint=eastwest;strokeColor=inherit;fontSize=16;" parent="pu5xrx0_DN7eYfLpeFKv-72" vertex="1">
          <mxGeometry y="40" width="349" height="30" as="geometry" />
        </mxCell>
        <mxCell id="pu5xrx0_DN7eYfLpeFKv-74" value="&lt;u&gt;nif_fornecedor&lt;/u&gt;" style="shape=partialRectangle;html=1;whiteSpace=wrap;connectable=0;fillColor=none;top=0;left=0;bottom=0;right=0;overflow=hidden;pointerEvents=1;strokeColor=inherit;fontSize=16;align=center;" parent="pu5xrx0_DN7eYfLpeFKv-73" vertex="1">
          <mxGeometry width="174" height="30" as="geometry">
            <mxRectangle width="174" height="30" as="alternateBounds" />
          </mxGeometry>
        </mxCell>
        <mxCell id="pu5xrx0_DN7eYfLpeFKv-75" value="&lt;u&gt;cod_mat_pri&lt;/u&gt;" style="shape=partialRectangle;html=1;whiteSpace=wrap;connectable=0;fillColor=none;top=0;left=0;bottom=0;right=0;overflow=hidden;pointerEvents=1;strokeColor=inherit;fontSize=16;align=center;" parent="pu5xrx0_DN7eYfLpeFKv-73" vertex="1">
          <mxGeometry x="174" width="175" height="30" as="geometry">
            <mxRectangle width="175" height="30" as="alternateBounds" />
          </mxGeometry>
        </mxCell>
        <mxCell id="pu5xrx0_DN7eYfLpeFKv-77" value="" style="endArrow=classic;html=1;rounded=0;" parent="1" edge="1">
          <mxGeometry width="50" height="50" relative="1" as="geometry">
            <mxPoint x="170" y="140" as="sourcePoint" />
            <mxPoint x="300" y="270" as="targetPoint" />
            <Array as="points">
              <mxPoint x="170" y="210" />
              <mxPoint x="170" y="300" />
              <mxPoint x="230" y="300" />
              <mxPoint x="300" y="300" />
            </Array>
          </mxGeometry>
        </mxCell>
        <mxCell id="pu5xrx0_DN7eYfLpeFKv-79" value="" style="endArrow=classic;html=1;rounded=0;" parent="1" edge="1">
          <mxGeometry width="50" height="50" relative="1" as="geometry">
            <mxPoint x="1040" y="250" as="sourcePoint" />
            <mxPoint x="1070" y="140" as="targetPoint" />
            <Array as="points">
              <mxPoint x="1070" y="250" />
              <mxPoint x="1070" y="160" />
              <mxPoint x="1070" y="140" />
            </Array>
          </mxGeometry>
        </mxCell>
        <mxCell id="pu5xrx0_DN7eYfLpeFKv-85" value="" style="endArrow=classic;html=1;rounded=0;exitX=0.25;exitY=1;exitDx=0;exitDy=0;" parent="1" source="pu5xrx0_DN7eYfLpeFKv-63" edge="1">
          <mxGeometry width="50" height="50" relative="1" as="geometry">
            <mxPoint x="1420" y="410" as="sourcePoint" />
            <mxPoint x="1340" y="390" as="targetPoint" />
            <Array as="points">
              <mxPoint x="1180" y="290" />
              <mxPoint x="1280" y="290" />
              <mxPoint x="1390" y="290" />
              <mxPoint x="1390" y="420" />
              <mxPoint x="1360" y="420" />
              <mxPoint x="1340" y="420" />
            </Array>
          </mxGeometry>
        </mxCell>
        <mxCell id="pu5xrx0_DN7eYfLpeFKv-86" value="" style="endArrow=classic;html=1;rounded=0;exitX=0.04;exitY=1.061;exitDx=0;exitDy=0;exitPerimeter=0;" parent="1" source="pu5xrx0_DN7eYfLpeFKv-60" edge="1">
          <mxGeometry width="50" height="50" relative="1" as="geometry">
            <mxPoint x="800" y="270" as="sourcePoint" />
            <mxPoint x="1280" y="390" as="targetPoint" />
            <Array as="points">
              <mxPoint x="771" y="420" />
              <mxPoint x="1030" y="420" />
              <mxPoint x="1280" y="420" />
            </Array>
          </mxGeometry>
        </mxCell>
        <mxCell id="pu5xrx0_DN7eYfLpeFKv-90" value="" style="endArrow=classic;html=1;rounded=0;exitX=0.686;exitY=1;exitDx=0;exitDy=0;exitPerimeter=0;" parent="1" source="w_JXF_L3tK3iDoOa67MP-14" edge="1">
          <mxGeometry width="50" height="50" relative="1" as="geometry">
            <mxPoint x="1061" y="673" as="sourcePoint" />
            <mxPoint x="1160" y="800" as="targetPoint" />
            <Array as="points">
              <mxPoint x="1060" y="750" />
              <mxPoint x="1060" y="830" />
              <mxPoint x="1160" y="830" />
            </Array>
          </mxGeometry>
        </mxCell>
        <mxCell id="pu5xrx0_DN7eYfLpeFKv-91" value="" style="endArrow=classic;html=1;rounded=0;" parent="1" edge="1">
          <mxGeometry width="50" height="50" relative="1" as="geometry">
            <mxPoint x="860" y="670" as="sourcePoint" />
            <mxPoint x="560" y="400" as="targetPoint" />
            <Array as="points">
              <mxPoint x="860" y="700" />
              <mxPoint x="560" y="700" />
              <mxPoint x="560" y="550" />
              <mxPoint x="560" y="420" />
            </Array>
          </mxGeometry>
        </mxCell>
        <mxCell id="w_JXF_L3tK3iDoOa67MP-1" value="Tipo_Produto" style="shape=table;startSize=40;container=1;collapsible=0;childLayout=tableLayout;fixedRows=1;rowLines=0;fontStyle=0;strokeColor=default;fontSize=16;" vertex="1" parent="1">
          <mxGeometry x="219.5" y="600" width="310" height="70" as="geometry" />
        </mxCell>
        <mxCell id="w_JXF_L3tK3iDoOa67MP-2" value="" style="shape=tableRow;horizontal=0;startSize=0;swimlaneHead=0;swimlaneBody=0;top=0;left=0;bottom=0;right=0;collapsible=0;dropTarget=0;fillColor=none;points=[[0,0.5],[1,0.5]];portConstraint=eastwest;strokeColor=inherit;fontSize=16;" vertex="1" parent="w_JXF_L3tK3iDoOa67MP-1">
          <mxGeometry y="40" width="310" height="30" as="geometry" />
        </mxCell>
        <mxCell id="w_JXF_L3tK3iDoOa67MP-3" value="custo_fabrico" style="shape=partialRectangle;html=1;whiteSpace=wrap;connectable=0;fillColor=none;top=0;left=0;bottom=0;right=0;overflow=hidden;pointerEvents=1;strokeColor=inherit;fontSize=16;align=center;" vertex="1" parent="w_JXF_L3tK3iDoOa67MP-2">
          <mxGeometry width="110" height="30" as="geometry">
            <mxRectangle width="110" height="30" as="alternateBounds" />
          </mxGeometry>
        </mxCell>
        <mxCell id="w_JXF_L3tK3iDoOa67MP-4" value="preco_venda" style="shape=partialRectangle;html=1;whiteSpace=wrap;connectable=0;fillColor=none;top=0;left=0;bottom=0;right=0;overflow=hidden;pointerEvents=1;strokeColor=inherit;fontSize=16;align=center;" vertex="1" parent="w_JXF_L3tK3iDoOa67MP-2">
          <mxGeometry x="110" width="110" height="30" as="geometry">
            <mxRectangle width="110" height="30" as="alternateBounds" />
          </mxGeometry>
        </mxCell>
        <mxCell id="w_JXF_L3tK3iDoOa67MP-5" value="&lt;u&gt;categoria&lt;/u&gt;" style="shape=partialRectangle;html=1;whiteSpace=wrap;connectable=0;fillColor=none;top=0;left=0;bottom=0;right=0;align=center;spacingLeft=6;overflow=hidden;strokeColor=inherit;fontSize=16;" vertex="1" parent="w_JXF_L3tK3iDoOa67MP-2">
          <mxGeometry x="220" width="90" height="30" as="geometry">
            <mxRectangle width="90" height="30" as="alternateBounds" />
          </mxGeometry>
        </mxCell>
        <mxCell id="w_JXF_L3tK3iDoOa67MP-13" value="Produto" style="shape=table;startSize=40;container=1;collapsible=0;childLayout=tableLayout;fixedRows=1;rowLines=0;fontStyle=0;strokeColor=default;fontSize=16;" vertex="1" parent="1">
          <mxGeometry x="590" y="600" width="685" height="70" as="geometry" />
        </mxCell>
        <mxCell id="w_JXF_L3tK3iDoOa67MP-14" value="" style="shape=tableRow;horizontal=0;startSize=0;swimlaneHead=0;swimlaneBody=0;top=0;left=0;bottom=0;right=0;collapsible=0;dropTarget=0;fillColor=none;points=[[0,0.5],[1,0.5]];portConstraint=eastwest;strokeColor=inherit;fontSize=16;" vertex="1" parent="w_JXF_L3tK3iDoOa67MP-13">
          <mxGeometry y="40" width="685" height="30" as="geometry" />
        </mxCell>
        <mxCell id="w_JXF_L3tK3iDoOa67MP-15" value="&lt;u&gt;código&lt;/u&gt;" style="shape=partialRectangle;html=1;whiteSpace=wrap;connectable=0;fillColor=none;top=0;left=0;bottom=0;right=0;overflow=hidden;pointerEvents=1;strokeColor=inherit;fontSize=16;align=center;" vertex="1" parent="w_JXF_L3tK3iDoOa67MP-14">
          <mxGeometry width="80" height="30" as="geometry">
            <mxRectangle width="80" height="30" as="alternateBounds" />
          </mxGeometry>
        </mxCell>
        <mxCell id="w_JXF_L3tK3iDoOa67MP-16" value="quant_armazém" style="shape=partialRectangle;html=1;whiteSpace=wrap;connectable=0;fillColor=none;top=0;left=0;bottom=0;right=0;overflow=hidden;pointerEvents=1;strokeColor=inherit;fontSize=16;align=center;" vertex="1" parent="w_JXF_L3tK3iDoOa67MP-14">
          <mxGeometry x="80" width="140" height="30" as="geometry">
            <mxRectangle width="140" height="30" as="alternateBounds" />
          </mxGeometry>
        </mxCell>
        <mxCell id="w_JXF_L3tK3iDoOa67MP-17" value="cod_mat_pri" style="shape=partialRectangle;html=1;whiteSpace=wrap;connectable=0;fillColor=none;top=0;left=0;bottom=0;right=0;overflow=hidden;pointerEvents=1;strokeColor=inherit;fontSize=16;align=center;" vertex="1" parent="w_JXF_L3tK3iDoOa67MP-14">
          <mxGeometry x="220" width="110" height="30" as="geometry">
            <mxRectangle width="110" height="30" as="alternateBounds" />
          </mxGeometry>
        </mxCell>
        <mxCell id="w_JXF_L3tK3iDoOa67MP-18" value="categoria_tipo" style="shape=partialRectangle;html=1;whiteSpace=wrap;connectable=0;fillColor=none;top=0;left=0;bottom=0;right=0;align=center;spacingLeft=6;overflow=hidden;strokeColor=inherit;fontSize=16;" vertex="1" parent="w_JXF_L3tK3iDoOa67MP-14">
          <mxGeometry x="330" width="110" height="30" as="geometry">
            <mxRectangle width="110" height="30" as="alternateBounds" />
          </mxGeometry>
        </mxCell>
        <mxCell id="w_JXF_L3tK3iDoOa67MP-19" value="&lt;div align=&quot;center&quot;&gt;num_encomenda&lt;/div&gt;" style="shape=partialRectangle;html=1;whiteSpace=wrap;connectable=0;fillColor=none;top=0;left=0;bottom=0;right=0;align=center;spacingLeft=6;overflow=hidden;strokeColor=inherit;fontSize=16;" vertex="1" parent="w_JXF_L3tK3iDoOa67MP-14">
          <mxGeometry x="440" width="150" height="30" as="geometry">
            <mxRectangle width="150" height="30" as="alternateBounds" />
          </mxGeometry>
        </mxCell>
        <mxCell id="w_JXF_L3tK3iDoOa67MP-24" value="&lt;div align=&quot;center&quot;&gt;ID_func&lt;/div&gt;" style="shape=partialRectangle;html=1;whiteSpace=wrap;connectable=0;fillColor=none;top=0;left=0;bottom=0;right=0;align=center;spacingLeft=6;overflow=hidden;strokeColor=inherit;fontSize=16;" vertex="1" parent="w_JXF_L3tK3iDoOa67MP-14">
          <mxGeometry x="590" width="95" height="30" as="geometry">
            <mxRectangle width="95" height="30" as="alternateBounds" />
          </mxGeometry>
        </mxCell>
        <mxCell id="w_JXF_L3tK3iDoOa67MP-26" style="edgeStyle=orthogonalEdgeStyle;rounded=0;orthogonalLoop=1;jettySize=auto;html=1;exitX=1;exitY=0.5;exitDx=0;exitDy=0;" edge="1" parent="1" source="pu5xrx0_DN7eYfLpeFKv-55">
          <mxGeometry relative="1" as="geometry">
            <mxPoint x="1300" y="390" as="targetPoint" />
            <Array as="points">
              <mxPoint x="1030" y="520" />
              <mxPoint x="1300" y="520" />
            </Array>
          </mxGeometry>
        </mxCell>
        <mxCell id="w_JXF_L3tK3iDoOa67MP-27" style="edgeStyle=orthogonalEdgeStyle;rounded=0;orthogonalLoop=1;jettySize=auto;html=1;exitX=1;exitY=0.5;exitDx=0;exitDy=0;entryX=0.932;entryY=1.071;entryDx=0;entryDy=0;entryPerimeter=0;" edge="1" parent="1" source="pu5xrx0_DN7eYfLpeFKv-73" target="pu5xrx0_DN7eYfLpeFKv-41">
          <mxGeometry relative="1" as="geometry">
            <mxPoint x="600" y="420" as="targetPoint" />
            <Array as="points">
              <mxPoint x="549" y="240" />
              <mxPoint x="650" y="240" />
              <mxPoint x="650" y="420" />
              <mxPoint x="600" y="420" />
            </Array>
          </mxGeometry>
        </mxCell>
        <mxCell id="w_JXF_L3tK3iDoOa67MP-28" style="edgeStyle=orthogonalEdgeStyle;rounded=0;orthogonalLoop=1;jettySize=auto;html=1;exitX=0;exitY=0.5;exitDx=0;exitDy=0;" edge="1" parent="1" source="pu5xrx0_DN7eYfLpeFKv-55">
          <mxGeometry relative="1" as="geometry">
            <mxPoint x="580" y="400" as="targetPoint" />
          </mxGeometry>
        </mxCell>
        <mxCell id="w_JXF_L3tK3iDoOa67MP-29" style="edgeStyle=orthogonalEdgeStyle;rounded=0;orthogonalLoop=1;jettySize=auto;html=1;exitX=1;exitY=0.5;exitDx=0;exitDy=0;" edge="1" parent="1" source="w_JXF_L3tK3iDoOa67MP-14">
          <mxGeometry relative="1" as="geometry">
            <mxPoint x="1320" y="390" as="targetPoint" />
          </mxGeometry>
        </mxCell>
        <mxCell id="w_JXF_L3tK3iDoOa67MP-30" value="" style="endArrow=classic;html=1;rounded=0;" edge="1" parent="1">
          <mxGeometry width="50" height="50" relative="1" as="geometry">
            <mxPoint x="990" y="670" as="sourcePoint" />
            <mxPoint x="490" y="670" as="targetPoint" />
            <Array as="points">
              <mxPoint x="990" y="730" />
              <mxPoint x="490" y="730" />
              <mxPoint x="490" y="700" />
            </Array>
          </mxGeometry>
        </mxCell>
        <mxCell id="w_JXF_L3tK3iDoOa67MP-40" style="edgeStyle=orthogonalEdgeStyle;rounded=0;orthogonalLoop=1;jettySize=auto;html=1;exitX=1;exitY=0.5;exitDx=0;exitDy=0;" edge="1" parent="1" source="pu5xrx0_DN7eYfLpeFKv-9">
          <mxGeometry relative="1" as="geometry">
            <mxPoint x="715" y="830" as="targetPoint" />
            <Array as="points">
              <mxPoint x="1410" y="785" />
              <mxPoint x="1410" y="860" />
              <mxPoint x="715" y="860" />
            </Array>
          </mxGeometry>
        </mxCell>
      </root>
    </mxGraphModel>
  </diagram>
</mxfile>
